<?xml version="1.0" encoding="iso-8859-1"?>
<!-- Generator: Adobe Illustrator 22.1.0, SVG Export Plug-In . SVG Version: 6.00 Build 0)  -->
<svg xmlns="http://www.w3.org/2000/svg" xmlns:xlink="http://www.w3.org/1999/xlink" version="1.1" id="Layer_1_1_" x="0px" y="0px" viewBox="0 0 64 64" style="enable-background:new 0 0 64 64;" xml:space="preserve" width="512" height="512">
<g>
	<path d="M44.944,20h2.899c2.415,0,4.435-1.721,4.899-4h-2.899C47.429,16,45.409,17.721,44.944,20z"/>
	<path d="M22,11c0.099,0,0.195,0.012,0.294,0.015l0.702-7.02C23,3.406,22.594,3,22.095,3h-0.189C21.406,3,21,3.406,21,3.905   l0.707,7.11C21.805,11.012,21.901,11,22,11z"/>
	<path d="M14,32c0-0.341,0.035-0.674,0.09-1H12v0.685c0.749,0.357,1.426,0.839,2,1.425V32z"/>
	<path d="M13.191,7.556l3.421,5.036c0.268-0.173,0.545-0.333,0.83-0.48l-2.057-5.657c-0.015-0.04-0.03-0.077-0.049-0.113   c-0.141-0.282-0.365-0.477-0.644-0.569c-0.279-0.093-0.576-0.071-0.837,0.06l-0.25,0.125c-0.541,0.27-0.761,0.93-0.49,1.471   C13.137,7.469,13.163,7.514,13.191,7.556z"/>
	<path d="M17.382,29H28.52l1.312-6.296C29.943,22.168,30,21.619,30,21.072C30,16.589,26.411,13,22,13s-8,3.589-8,8   c0,0.619,0.057,1.168,0.168,1.704l1.156,5.546C16.424,26.88,18.11,26,20,26v2C18.995,28,18.086,28.385,17.382,29z M25,17h2v2h-2V17   z M25,21h2v2h-2V21z M25,25h2v2h-2V25z"/>
	<path d="M11,37h2.899c-0.465-2.279-2.484-4-4.899-4H6.101C6.565,35.279,8.585,37,11,37z"/>
	<path d="M30.811,7.553c0.026-0.04,0.053-0.084,0.075-0.129c0.269-0.537,0.049-1.197-0.492-1.467l-0.25-0.125   c-0.262-0.13-0.557-0.153-0.837-0.06c-0.278,0.093-0.503,0.288-0.634,0.55c-0.028,0.056-0.044,0.093-0.058,0.131l-2.057,5.657   c0.285,0.147,0.562,0.307,0.831,0.48L30.811,7.553z"/>
	<path d="M28.984,49H57v-6H27.652C28.535,44.857,28.983,46.898,28.984,49z M53,45h2v2h-2V45z"/>
	<path d="M26.463,57H54c1.654,0,3-1.346,3-3v-3H28.856C28.537,53.203,27.695,55.246,26.463,57z M53,53h2v2h-2V53z"/>
	<path d="M16.142,31C16.058,31.322,16,31.653,16,32v1h41h1h3v-2H16.142z"/>
	<path d="M16,37.867c0.201-0.049,0.402-0.1,0.585-0.179c3.05-1.305,6.6-0.521,8.826,1.954c0.388,0.431,0.736,0.889,1.063,1.357H57   v-6H16V37.867z M53,37h2v2h-2V37z"/>
	<path d="M23.925,40.98c-1.628-1.81-4.323-2.409-6.553-1.453c-0.429,0.183-0.893,0.309-1.372,0.386v1.883   c0.993-0.37,1.936-1.149,2.294-1.505l1.413,1.416C19.473,41.942,17.347,44,15,44s-4.473-2.058-4.707-2.293l1.413-1.416   c0.358,0.355,1.301,1.134,2.294,1.505V39h-3c-0.339,0-0.669-0.032-0.995-0.079c-1.402,0.1-2.884,0.884-3.976,2.11   C4.076,43.228,3,46.057,3,49c0,3.293,1.308,6.364,3.681,8.648c2.373,2.283,5.479,3.462,8.797,3.343   c6.181-0.239,11.237-5.267,11.511-11.446C27.128,46.374,26.04,43.332,23.925,40.98z M15,59C9.486,59,5,54.514,5,49h2   c0,4.411,3.589,8,8,8V59z"/>
	<path d="M52.771,29c-0.478-1.858-1.391-3.577-2.689-5.02c-1.629-1.81-4.324-2.407-6.554-1.453C43.358,22.6,43.18,22.661,43,22.718   V14c0-1.654,1.346-3,3-3h1V9h-1c-2.757,0-5,2.243-5,5v8.718c-0.18-0.057-0.358-0.118-0.528-0.191   c-2.229-0.954-4.925-0.357-6.554,1.453c-1.298,1.443-2.211,3.161-2.689,5.02H42H52.771z M37.507,24.138   C37.522,24.146,39.036,25,42,25s4.478-0.854,4.493-0.862l1.021,1.719C47.437,25.904,45.569,27,42,27s-5.437-1.096-5.515-1.143   L37.507,24.138z"/>
</g>
</svg>
