<?xml version="1.0" encoding="utf-8"?>
<!-- Generator: Adobe Illustrator 23.0.2, SVG Export Plug-In . SVG Version: 6.00 Build 0)  -->
<svg version="1.1" id="Layer_1" xmlns="http://www.w3.org/2000/svg" xmlns:xlink="http://www.w3.org/1999/xlink" x="0px" y="0px"
	 viewBox="0 0 675 294" style="enable-background:new 0 0 675 294;" xml:space="preserve">
<style type="text/css">
	.st0{fill:#FFFFFF;}
</style>
<g id="layer101">
	<path class="st0" d="M203.3,192c-2.5-1-3.1-3.8-1-4.6c0.7-0.2,2.7,0.2,4.3,1.1c3.8,1.9,4.7,1.9,7.5-0.4c3-2.4,1.7-4.3-4.1-6
		c-4.5-1.3-6.3-3.9-5.4-7.6c1.4-5.6,11-8.7,16-5.1c2.8,2.1,0.5,4.2-3.3,2.9c-1.5-0.4-4.1-0.7-5.6-0.5c-2.4,0.3-2.8,0.8-2.5,2.9
		c0.2,2,1.2,2.9,4.2,4c5.3,1.8,6.6,3.1,6.6,6.3c0,4.8-2.9,7.3-9.1,7.6C207.9,192.8,204.5,192.6,203.3,192z"/>
	<path class="st0" d="M222,192.2c0-2.4,3.4-15.8,4.3-17c0.7-0.8,1.3-0.9,2.2-0.2c0.9,0.7,2.1,0.7,3.9,0c3.7-1.4,4.3-1.3,6.6,1
		c1.1,1.1,2,1.6,2,1.1c0-1.4,6.4-3.3,8.3-2.5c2,0.7,2.2,5.8,0.6,13.4c-0.9,4-1.5,5-3.1,5s-1.9-0.5-1.4-2.2c0.3-1.3,0.9-4.7,1.2-7.5
		c0.6-4.8,0.5-5.3-1.3-5.3c-2.9,0-5.2,3.1-6.8,9c-1.6,6-1.9,6.4-3.8,5.7c-1.2-0.5-1.2-1.5,0-7.2c0.9-3.6,1.3-6.9,1-7.2
		c-1.2-1.1-5.7,0.8-6.8,2.9c-0.6,1.1-1.6,4.2-2.3,6.7c-0.7,3-1.7,4.7-2.8,4.9C222.8,193,222,192.7,222,192.2z"/>
	<path class="st0" d="M255.7,191.2c-1-1.1-1.7-3.6-1.7-6.1c0-3.6,0.6-4.9,3.4-7.7c3.6-3.6,7.5-4.4,9.6-1.9c1,1.2,1.5,1.2,3.4,0
		c1.3-0.8,2.5-1.3,2.8-0.9c0.3,0.3,0,3.1-0.8,6.2c-0.7,3.1-1.3,7.2-1.4,9c0,2.5-0.4,3.2-2,3.2c-1.2,0-2-0.7-2-1.7
		c0-1.5-0.1-1.5-1.8,0C262.7,193.5,257.7,193.4,255.7,191.2z M265.9,187.6c4.4-4.7,1-11.5-4.4-8.6c-3.1,1.6-4.2,5.2-2.6,8.6
		C260.3,190.7,263,190.7,265.9,187.6z"/>
	<path class="st0" d="M276.2,191.4c-0.6-1-0.4-3.7,0.4-7.3c0.7-3.1,1.8-8.2,2.5-11.4c0.8-4.6,1.4-5.7,2.7-5.5
		c2.1,0.4,2.1,0.2-0.2,11.7c-1.8,8.9-1.8,9.5-0.2,10.7c1,0.7,1.5,1.7,1.1,2.3C281.5,193.6,277.2,193.2,276.2,191.4z"/>
	<path class="st0" d="M286.4,191.5c-0.4-0.9-0.1-4.2,0.6-7.3c0.6-3.1,1.7-8.2,2.3-11.2c0.9-3.8,1.7-5.6,3-5.8
		c2.2-0.4,2.2,0.7-0.3,11.9c-2,9-2,10.4,0.3,10.4c0.7,0,1.2,0.7,1.2,1.5C293.5,193.2,287.2,193.6,286.4,191.5z"/>
	<path class="st0" d="M304,191.9c0-0.6,0.4-2.8,0.9-4.8s1.4-5.8,1.9-8.6c2.4-11.6,1.6-10.5,8-10.5c7.5,0,9.7,1.5,9.7,6.9
		c0,5.7-2.9,8.4-9.7,9.1c-5,0.5-5.2,0.6-6.2,4.5c-0.7,2.4-1.8,4.1-2.9,4.3C304.8,193,304,192.6,304,191.9z M318.1,179.7
		c4.4-3.4,3.2-7.7-2.2-7.7c-3.6,0-3.9,0.2-4.8,3.8c-0.6,2-1.1,4-1.1,4.3C310,181.2,316.5,180.9,318.1,179.7z"/>
	<path class="st0" d="M325,190.8c0.1-3.9,2.7-14.9,3.9-16.1c0.8-0.8,1.4-0.8,2.2,0c0.7,0.7,2.5,0.9,4.2,0.6c3.8-0.8,3.3,0.8-1.3,3.9
		c-1.9,1.3-3.6,3.3-3.8,4.3c-1,5.9-2.4,9.5-3.7,9.5C325.6,193,325,192.1,325,190.8z"/>
	<path class="st0" d="M338.6,190.8c-6.3-9,7.2-21.9,14.8-14.2c3.6,3.6,0.2,14.5-4.9,15.8C344,193.6,340.1,193,338.6,190.8z
		 M348.7,187.8c3.6-3.4,2.9-9.8-1.1-9.8c-5.3,0-9,8.5-4.8,10.9C345.3,190.4,346.1,190.2,348.7,187.8z"/>
	<path class="st0" d="M359.8,191.8c-2.7-2.2-3-6.5-0.9-11.2c1.5-3.4,2.7-4.6,5.4-5.5c3.8-1.3,7.6-0.2,7.8,2.2c0.1,2,1.8-2.6,1.8-5.3
		c0.2-3.7,1.7-5.8,3.2-4.3c0.9,0.9,0.8,3.3-0.5,10.1c-0.9,5-1.6,10.2-1.6,11.6c0,2.9-2.7,4.7-4,2.6c-0.6-0.9-1.3-0.9-2.8-0.1
		C365.5,193.4,361.8,193.3,359.8,191.8z M368.7,188.5c4.2-3,3.7-11.5-0.7-11.5c-3.9,0-8,9.6-5.3,12.3
		C363.8,190.4,366.4,190.1,368.7,188.5z"/>
	<path class="st0" d="M380,190.9c-2.1-3.9,2.7-18.8,5.3-16.3c0.2,0.3-0.2,3-0.9,6.2c-1.5,6.4-1.1,9.2,1.5,9.2c2.8,0,5.8-4.1,7.1-9.8
		c0.6-2.8,1.6-5.5,2.2-5.8c2.2-1.4,2.7,1.4,1.3,7.1c-0.8,3.3-1.4,7.2-1.5,8.8c0,2.8-1.7,3.6-3.7,1.6c-0.8-0.8-1.7-0.8-3.1,0
		C384.9,193.7,381.2,193.2,380,190.9z"/>
	<path class="st0" d="M401.8,190.5c-4-5.4-1.1-13.3,5.7-15.5c2.7-0.9,4-0.8,6.2,0.2c3.1,1.5,3.7,4.1,1.1,4.6c-1,0.2-1.8-0.1-1.8-0.7
		c0-1.8-5.6-1.2-7.3,0.7c-2,2.2-2.2,7.3-0.5,9c1.5,1.5,4.3,1.5,6.8,0c2.9-1.8,3.9,0.1,1.1,2.3C409.7,193.9,404,193.6,401.8,190.5z"
		/>
	<path class="st0" d="M420.7,191.6c-2.9-2.2-3.2-7.6-0.7-11.9c4.8-8.1,19-6.5,15.2,1.8c-0.9,1.9-2.1,2.4-7.1,3
		c-3.4,0.4-6.1,0.9-6.1,1.2c0,0.2,0.5,1.3,1,2.4c1.2,2.2,3.7,2.4,7.5,0.7c3.4-1.5,4.5-0.1,1.6,2.3
		C429.4,193.3,423.3,193.6,420.7,191.6z M429.5,181.8c3.3-1.5,3.4-4.8,0-4.8c-2.5,0-6.5,3.1-6.5,5
		C423,183.3,426.3,183.3,429.5,181.8z"/>
	<path class="st0" d="M437.1,191.3c0-1,0.8-4.9,1.7-8.8c1.3-5.3,2.2-7.1,3.6-7.3c1.4-0.3,1.7,0,1.3,1.2c-0.8,2,0.7,2.1,2.3,0.1
		c0.7-0.8,1.9-1.5,2.6-1.5c0.8,0,1.4,0.7,1.4,1.5s-0.7,1.5-1.5,1.5c-3.1,0-6.4,4.6-7.1,9.9c-0.5,4.1-1,5.1-2.5,5.1
		C437.7,193,437,192.3,437.1,191.3z"/>
	<path class="st0" d="M450.4,191.6c-1.7-1.3-1.7-1.5-0.2-2.1c0.9-0.4,2.5-0.2,3.6,0.4c2.5,1.3,6.2,0.3,6.2-1.8c0-1-1.6-2.4-4-3.5
		c-3.4-1.5-4-2.2-4-4.7s0.6-3.3,3.5-4.5c4.3-1.7,5.6-1.8,8-0.1c2.8,2.1,1.1,3.8-2.5,2.4c-2.5-0.9-3.3-0.9-4.6,0.5
		c-1.7,1.7-1.7,1.7,5.1,5.4c2.8,1.5,3,4.9,0.6,7.3C459.6,193.4,453.4,193.7,450.4,191.6z"/>
	<path class="st0" d="M66,112.7V84.3l3.4-0.1c1.9-0.1,3.8,0.4,4.4,1.1C74.3,86,78,92.5,82,99.7c6.9,12.7,7.1,13.4,5.8,16.3
		c-0.7,1.6-1.6,3-1.9,3c-0.4,0-3.1-4.3-6-9.5c-3-5.2-5.7-9.5-6.1-9.5c-0.5,0-0.8,9.2-0.8,20.5V141h-3.5H66V112.7z"/>
	<path class="st0" d="M114.4,139.7c-0.3-0.8-0.4-10.3-0.2-21.1c0.2-10.8,0.1-19.6-0.2-19.6c-0.3,0-4.5,7.2-9.5,16
		c-9,16.2-11.1,18.4-13.4,14.2c-0.8-1.4,0.5-4.5,6-14.3c3.9-6.8,8.6-15.2,10.4-18.6c7-12.8,6.4-12.2,10.9-12l3.1,0.2v28v28l-3.3,0.3
		C116.1,141,114.8,140.6,114.4,139.7z"/>
	<path class="st0" d="M164,130.3v-10.8l7-12c13.5-23.3,13.4-23.2,17.4-23.3c2-0.1,3.6,0.2,3.6,0.5c0,0.4-4.6,8.3-10.2,17.7
		l-10.3,17.1L171,130l-0.5,10.5l-3.2,0.3l-3.3,0.3V130.3z"/>
	<path class="st0" d="M242.2,138.4c-16.8-8.4-20.6-33-7.2-46.5c10.5-10.5,28.4-10.1,36.7,0.7l2.7,3.6l-2.3,1.9
		c-2.3,1.9-2.4,1.9-6.6-2c-4.7-4.3-9.1-5.7-15.7-4.8c-16.1,2.2-21.2,27.8-7.8,39c5.8,4.9,12.1,5.6,20.3,2.2c1.4-0.6,1.7-0.2,1.7,2.2
		C264,141.2,251.9,143.2,242.2,138.4z"/>
	<path class="st0" d="M270.5,139.8c-0.3-0.7-0.6-5.8-0.7-11.3l-0.3-10L264,118c-4.7-0.4-5.5-0.8-5.8-2.7c-0.3-2.1,0.1-2.2,8.7-2.5
		l9.1-0.3v14.3V141h-2.5C272.1,141,270.7,140.4,270.5,139.8z"/>
	<path class="st0" d="M357,112.5V83.8l14.3,0.4c13.4,0.3,14.6,0.5,18,2.8c4.1,2.7,8.7,10.8,8.7,14.9c0,6.7-3.9,13.4-9.6,16.7
		c-1.7,1-1.5,1.6,3.1,9c2.6,4.3,5.5,8.7,6.3,9.6c1.9,2.3,0.7,3.8-3.1,3.8c-3,0-3.7-0.8-11.2-12.7c-4.4-6.9-8.1-13-8.3-13.4
		c-0.2-0.5,1.7-0.9,4.3-0.9c3.8,0,5.2-0.5,7.6-2.9c2.4-2.4,2.9-3.8,2.9-7.6c0-5.4-2.2-9.8-5.7-11.4C383,91.5,377.9,91,373,91h-9
		v12.1c0,10.3,0.2,12,1.5,11.5c0.8-0.3,2.1,0.4,3,1.7c2.3,3.3,1.9,4.9-1.2,4.5l-2.8-0.3l-0.5,10l-0.5,10l-3.2,0.3l-3.3,0.3V112.5z"
		/>
	<path class="st0" d="M422.8,140.4c-0.5-0.4-0.8-10.1-0.8-21.6V98h3.5h3.5v18v18h9.2c11.6,0,16.4-2.4,20.3-10
		c4.2-8.2,3.1-20.3-2.3-26.5c-4.4-5-9.5-6.5-22.4-6.5H422v-3.6v-3.7l13.3,0.5c15.1,0.6,19.9,2.1,25.9,8.1c6.3,6.3,8.9,19.5,5.9,30.4
		c-1.6,5.9-6.7,12.1-12.5,15.1c-4.3,2.3-6.4,2.6-18,3C429.4,141,423.2,140.9,422.8,140.4z"/>
	<path class="st0" d="M492,137.5V134l18.8,0.2l18.7,0.3l0.3,3.3l0.3,3.2h-19H492V137.5z"/>
	<path class="st0" d="M553,121c0-12.7,0.4-20,1-20c0.6,0,1,0.3,1,0.8c0,0.4,1.1,2,2.5,3.6c2.4,2.8,2.5,3.3,2.5,19.3V141h-3.5H553
		V121z"/>
	<path class="st0" d="M594.4,140.3c-1.1-0.8-20.9-25.3-34.1-42.1C552.4,88,551,84,555.5,84c2.9,0,1.8-1.2,21.5,23.5
		c8.4,10.5,15.5,18.9,15.8,18.7c0.4-0.1,0.7-9.5,0.7-21V84.5h3.5h3.5v28v28l-2.5,0.3C596.6,140.9,595,140.7,594.4,140.3z"/>
	<path class="st0" d="M304.2,137.9c-8.5-4.3-11.3-12.3-8.3-24.1c3.2-12.3,13.3-26.8,19.2-27.4c5-0.6,17.3,19,19.9,31.6
		c2.1,9.7-1.4,16.8-10.2,20.4c-6.1,2.6-7.8,2.2-7.8-1.9c0-3.5,0-3.5,4.4-3.5c4.6,0,9.6-2.9,9.6-5.6c0-1.1-0.8-1-3.7,0.6
		c-2.1,1.1-5.2,2-7,2c-3,0-3.3-0.3-3.3-2.9c0-2.7,0.3-2.9,5-3.3c5.4-0.5,9-2.9,9-6c0-1.1-0.3-1.8-0.7-1.6c-8.8,4.5-13.5,4.8-13.8,1
		c-0.1-1.4,0.5-2.6,1.4-2.9c7.8-2.4,11.4-5.4,9.1-7.7c-0.6-0.6-1.7-0.3-3.2,1.1c-1.3,1.2-3.4,2.3-4.8,2.5c-3.7,0.5-4.2-3.8-0.6-5.2
		c3.2-1.2,6-5.4,5.1-7.7c-0.6-1.5-0.8-1.5-1.2-0.3c-0.8,2.3-3.5,5-5,5c-0.9,0-1.3-1.5-1.3-5c0-2.7-0.4-5-1-5c-0.5,0-1,2.3-1,5
		c0,2.8-0.4,5-0.9,5c-0.4,0-2-1-3.5-2.1c-1.5-1.2-3-1.8-3.3-1.5c-1.1,1.1,3.3,6.1,5.6,6.4c1.5,0.2,2.1,1,2.1,2.7
		c0,1.3-0.4,2.6-0.9,2.9c-1.3,0.9-6.2-1.2-8.8-3.6l-2.3-2.1v2.6c0,3.1,3.1,5.5,8.3,6.4c3.3,0.5,3.7,0.9,3.7,3.4
		c0,2.7-0.3,2.9-3.7,2.9c-2.1,0-5.3-0.9-7.1-2c-4-2.5-4.2-2.5-4.2,0c0,2.7,4.4,5.3,9.9,6c4.2,0.5,4.6,0.8,4.9,3.4l0.4,2.9l-5.1-0.5
		c-2.8-0.3-5.9-1.2-6.9-2.2c-2.3-2-3.2-2-3.2-0.1c0,2.2,4.8,4.9,9.9,5.5c4.3,0.5,4.6,0.7,4.6,3.5
		C313.4,140.4,310.2,140.9,304.2,137.9z"/>
	<path class="st0" d="M492,118.2V109l16.7,0.2l16.7,0.3v2.5v2.5l-13.2,0.3l-13.2,0.3v6.3v6.3l-3.5-0.1l-3.5-0.1V118.2z"/>
	<path class="st0" d="M151.1,99.3c-6.6-11.3-7.8-13.9-6.6-14.6c3.9-2.1,5.9-0.4,12.4,11.1c5.5,9.7,6.3,11.8,5.5,14
		c-0.5,1.4-1.4,2.7-2,2.9C159.8,112.9,155.6,106.9,151.1,99.3z"/>
	<path class="st0" d="M492,93v-9h17.1c9.4,0,17.8,0.4,18.8,1c1.3,0.6,1.7,1.7,1.4,3.5l-0.5,2.5h-14.9H499v5.5v5.5h-3.5H492V93z"/>
</g>
</svg>
